<svg width="152" height="20" viewBox="0 0 152 20" fill="none" xmlns="http://www.w3.org/2000/svg">
<g clip-path="url(#clip0_114_1450)">
<path d="M9.77495 9.4249C10.85 15.4749 6.74995 18.3499 4.37495 17.3749C2.24995 16.5249 2.37495 12.0499 3.92495 7.5749C5.47495 3.0999 7.84995 0.449903 9.99995 1.1749C11.575 1.7249 11.8 4.1749 9.77495 7.2749H14.625C13.9 3.0249 10.85 0.274902 7.17495 0.274902C2.97495 0.274902 -0.425049 3.8999 -0.425049 9.2749C-0.425049 14.6499 2.97495 18.2499 7.17495 18.2499C11.875 18.2499 14.6 14.4999 14.8 9.4249H9.77495Z" fill="#C8FA00"/>
<path d="M20.2568 17.9999C20.3568 16.4749 20.5318 15.0499 20.7568 13.7249C23.5818 17.1999 25.6568 20.0749 28.2818 20.0999C29.0818 20.0999 29.9568 19.8499 30.9068 19.2499L30.7068 14.6499C29.2568 16.1999 25.0818 18.9499 20.8318 13.2999C20.8318 13.1749 20.8568 13.0749 20.8818 12.9749C22.2068 14.3749 23.9068 14.8749 25.3568 14.8749C28.7818 14.8749 31.8818 11.9499 31.8818 7.5749C31.8818 3.1999 28.9318 0.249902 25.1568 0.249902C22.7068 0.749902 20.4318 9.1249 19.9818 17.6999H19.7318C19.7568 9.6749 21.0818 0.499902 21.0818 0.499902H17.0068L17.8068 17.9999H20.2568ZM23.0568 14.0749C22.6318 13.9749 21.7568 13.5249 20.9568 12.5749C22.5568 4.1749 25.9818 0.424903 27.7568 1.0749C29.3568 1.6749 28.9818 4.7749 27.7318 8.4249C26.4568 12.0749 24.5818 14.4749 23.0568 14.0749Z" fill="#C8FA00"/>
<path d="M34.4501 0.499902L35.2501 17.9999H38.8501C39.0501 14.6749 41.0001 16.3499 43.0251 17.2999C44.1001 17.7999 45.3001 18.2499 46.4001 18.2499C47.1001 18.2499 47.7751 18.0749 48.3751 17.5999L48.2251 14.3999C46.5251 15.3749 44.7751 14.7249 41.9751 14.0999C40.5501 13.7999 38.8251 14.4499 38.6001 17.6999H38.3501C38.9251 9.3499 42.9251 10.7499 44.3751 11.0999C48.7252 12.1249 48.1251 7.9999 48.1251 7.9999C46.2501 8.6749 44.7501 7.7499 42.8751 7.7499C41.1251 8.4499 38.5251 10.7249 38.0501 17.6999H37.7751C38.3501 8.0749 40.6251 4.7749 43.1751 3.7749C44.8501 3.0999 48.1251 4.2749 48.1251 4.2749L47.9501 0.724902C47.9501 0.724902 45.6751 0.299903 41.6751 0.299903C39.9751 1.8999 37.7501 9.2499 37.4501 17.6999H37.1751C37.2001 9.6749 38.5251 0.499902 38.5251 0.499902H34.4501Z" fill="#C8FA00"/>
<path d="M50.3332 17.9999H55.1082C53.4082 16.4499 52.7582 15.3249 52.7582 14.4999C52.7582 12.1499 58.2332 12.3499 60.5582 12.0249C60.7582 11.3249 60.8332 10.4999 60.8332 9.6499C60.8332 6.7499 59.8832 3.1999 59.3332 0.799903H59.6082C62.1082 8.7499 63.1582 14.2999 63.1582 17.9999H67.8582L61.4582 0.499902H55.3582L50.3332 17.9999ZM50.7582 17.6999C53.2082 8.6999 57.8332 2.1999 58.8832 0.799903H59.0582C59.3832 2.4249 59.5582 3.7749 59.5582 4.8749C59.5582 7.2249 58.7332 8.5999 56.6582 9.9749C54.5082 11.3999 52.3082 12.7999 51.0332 17.6999H50.7582Z" fill="#C8FA00"/>
<path d="M69.2392 0.499902L70.0392 17.9999H72.9642C73.9392 8.8749 79.1392 5.9249 81.1392 6.6749C82.9892 7.3499 81.4892 11.6999 78.5392 17.9999H83.3142C83.3142 17.9999 84.0642 15.4249 84.0642 13.0999C84.0642 8.2749 82.3392 5.7749 78.3642 5.7749C76.3392 6.3499 73.3142 11.3249 72.7142 17.6999H72.4642C73.1142 7.8999 75.9142 4.6249 78.8892 3.8249C81.0642 3.2749 83.4642 4.8749 83.4642 4.8749L83.2392 1.0499C83.2392 1.0499 80.2142 0.299903 77.0392 0.299903C75.0392 1.9249 72.5142 9.4249 72.2142 17.6999H71.9642C71.9892 9.6749 73.2892 0.499902 73.2892 0.499902H69.2392Z" fill="#C8FA00"/>
<path d="M100.912 13.2749C99.9623 13.9999 98.7623 14.2499 97.4623 14.2499C95.6623 14.2499 93.6623 13.7749 91.7873 13.4499C91.4873 13.3999 91.2123 13.3749 90.9373 13.3749C89.1873 13.3749 87.8373 14.4249 87.8373 16.3749C87.8373 16.7749 87.8873 17.2249 88.0123 17.6999H87.7123C87.4873 16.7999 87.3873 15.9999 87.3873 15.2499C87.3873 7.6999 98.1873 8.1999 100.462 4.1249L100.262 0.824902H100.287L100.262 0.499902C94.9373 0.474903 91.3873 0.0249023 89.2123 0.0249023C87.8373 0.0249023 87.0373 0.199903 86.6623 0.749902C86.2123 1.3999 86.0623 2.2249 86.0623 3.0249C86.0623 4.6249 86.6623 6.1249 86.6623 6.1249C86.6623 6.1249 89.9873 0.949902 99.9373 0.824902L99.9623 1.0749C95.4373 2.0249 86.8623 6.9749 86.8623 14.5249C86.8623 15.6249 87.0373 16.7999 87.4623 17.9999H88.4373C88.3123 17.4999 88.2623 17.0999 88.2623 16.7749C88.2623 15.9749 88.6123 15.6749 89.1873 15.6749C90.2373 15.6749 92.1123 16.7249 94.0123 17.3999C95.7873 18.0499 97.2123 18.2499 98.2873 18.2499C100.287 18.2499 101.137 17.5249 101.137 17.5249L100.912 13.2749Z" fill="#C8FA00"/>
<path d="M103.442 0.499902L104.242 17.9999H107.842C108.042 14.6749 109.992 16.3499 112.017 17.2999C113.092 17.7999 114.292 18.2499 115.392 18.2499C116.092 18.2499 116.767 18.0749 117.367 17.5999L117.217 14.3999C115.517 15.3749 113.767 14.7249 110.967 14.0999C109.542 13.7999 107.817 14.4499 107.592 17.6999H107.342C107.917 9.3499 111.917 10.7499 113.367 11.0999C117.717 12.1249 117.117 7.9999 117.117 7.9999C115.242 8.6749 113.742 7.7499 111.867 7.7499C110.117 8.4499 107.517 10.7249 107.042 17.6999H106.767C107.342 8.0749 109.617 4.7749 112.167 3.7749C113.842 3.0999 117.117 4.2749 117.117 4.2749L116.942 0.724902C116.942 0.724902 114.667 0.299903 110.667 0.299903C108.967 1.8999 106.742 9.2499 106.442 17.6999H106.167C106.192 9.6749 107.517 0.499902 107.517 0.499902H103.442Z" fill="#C8FA00"/>
<path d="M123.647 17.9999C123.747 16.4749 123.922 15.0499 124.147 13.7249C126.972 17.1999 129.047 20.0749 131.672 20.0999C132.472 20.0999 133.347 19.8499 134.297 19.2499L134.097 14.6499C132.647 16.1999 128.472 18.9499 124.222 13.2999C124.222 13.1749 124.247 13.0749 124.272 12.9749C125.597 14.3749 127.297 14.8749 128.747 14.8749C132.172 14.8749 135.272 11.9499 135.272 7.5749C135.272 3.1999 132.322 0.249902 128.547 0.249902C126.097 0.749902 123.822 9.1249 123.372 17.6999H123.122C123.147 9.6749 124.472 0.499902 124.472 0.499902H120.397L121.197 17.9999H123.647ZM126.447 14.0749C126.022 13.9749 125.147 13.5249 124.347 12.5749C125.947 4.1749 129.372 0.424903 131.147 1.0749C132.747 1.6749 132.372 4.7749 131.122 8.4249C129.847 12.0749 127.972 14.4749 126.447 14.0749Z" fill="#C8FA00"/>
<path d="M138.202 16.9249C139.827 15.5249 145.427 17.6249 147.027 18.2499C149.577 17.2249 150.927 14.6999 151.252 12.5999C151.627 10.0249 150.352 7.8249 143.927 6.3749C140.427 5.5999 136.652 6.1999 137.302 3.9499C138.477 -0.100098 147.877 3.4749 150.377 5.7749L150.152 0.999903C150.152 0.999903 146.102 0.249902 141.027 0.249902C135.052 2.5249 136.152 7.8749 139.602 9.8499C150.027 5.7749 151.752 10.7499 150.627 12.9499C148.552 16.9499 142.252 11.1749 138.002 12.9499L138.202 16.9249Z" fill="#C8FA00"/>
</g>
<defs>
<clipPath id="clip0_114_1450">
<rect width="152" height="20" fill="white"/>
</clipPath>
</defs>
</svg>
